<svg width="24" height="24" viewBox="0 0 24 24" fill="none" xmlns="http://www.w3.org/2000/svg">
<g clip-path="url(#clip0_11589_33611)">
<path d="M21.8905 2.85938H2.10927C1.78457 2.85938 1.48058 2.9392 1.20557 3.07078L11.953 13.8182L14.3619 11.5032C14.3619 11.5032 14.3621 11.503 14.3621 11.5029C14.3622 11.5028 14.3623 11.5027 14.3623 11.5027L22.7946 3.07097C22.5195 2.9393 22.2153 2.85938 21.8905 2.85938Z" fill="#58595B"/>
<path d="M23.789 4.06543L15.8538 12.0001L23.7887 19.935C23.9203 19.66 24.0001 19.356 24.0001 19.0313V4.9688C24.0001 4.64429 23.9204 4.34035 23.789 4.06543Z" fill="#58595B"/>
<path d="M0.211406 4.06543C0.0798281 4.34045 0 4.64443 0 4.96913V19.0316C0 19.3562 0.0797344 19.6602 0.211219 19.9351L8.14636 12.0004L0.211406 4.06543Z" fill="#58595B"/>
<path d="M14.8596 12.9942L12.4504 15.3095C12.313 15.4469 12.1331 15.5155 11.9533 15.5155C11.7734 15.5155 11.5935 15.4469 11.4562 15.3095L9.14073 12.9941L1.20544 20.9289C1.48051 21.0606 1.78468 21.1405 2.10948 21.1405H21.8907C22.2154 21.1405 22.5194 21.0607 22.7944 20.9291L14.8596 12.9942Z" fill="#58595B"/>
</g>
<defs>
<clipPath id="clip0_11589_33611">
<rect width="24" height="24" fill="white"/>
</clipPath>
</defs>
</svg>
